<svg width="800" height="800" viewBox="0 0 800 800" fill="none" xmlns="http://www.w3.org/2000/svg">
<g clip-path="url(#clip0_6871_12451)">
<ellipse cx="399.763" cy="400.025" rx="384.427" ry="383.164" fill="#5D3EDE"/>
<path d="M671.514 128.612C707.201 164.299 735.509 206.665 754.822 253.292C774.136 299.918 784.076 349.893 784.076 400.361C784.076 450.83 774.136 500.804 754.822 547.431C735.509 594.057 707.201 636.424 671.514 672.11L617.164 617.76C645.713 589.211 668.36 555.318 683.811 518.017C699.261 480.715 707.214 440.736 707.214 400.361C707.214 359.986 699.261 320.007 683.811 282.705C668.36 245.404 645.713 211.511 617.164 182.962L671.514 128.612Z" fill="#3DD7AC"/>
<path d="M126.749 671.807C91.0622 636.12 62.754 593.754 43.4406 547.127C24.1271 500.5 14.1866 450.526 14.1866 400.058C14.1866 349.589 24.1271 299.615 43.4406 252.988C62.754 206.361 91.0622 163.995 126.749 128.308L181.099 182.658C152.549 211.208 129.903 245.101 114.452 282.402C99.0013 319.703 91.0488 359.683 91.0489 400.058C91.0489 440.432 99.0013 480.412 114.452 517.713C129.903 555.015 152.549 588.908 181.099 617.457L126.749 671.807Z" fill="#3DD7AC"/>
<path d="M307.371 367V235.197H391.074L387.097 262.277H346.382V291.061H382.173V318.142H346.382V367H307.371ZM444.064 231.409C464.138 231.409 480.361 237.406 492.733 249.399L475.5 269.662C466.663 262.592 457.257 259.057 447.283 259.057C442.612 259.057 439.077 259.878 436.679 261.519C434.28 263.161 433.08 265.496 433.08 268.526C433.08 270.799 433.712 272.692 434.974 274.207C436.363 275.596 438.572 276.922 441.602 278.184C444.758 279.447 449.808 281.214 456.752 283.487C470.639 287.905 480.613 293.46 486.673 300.151C492.859 306.843 495.952 315.996 495.952 327.61C495.952 336.069 493.68 343.581 489.135 350.146C484.716 356.584 478.341 361.634 470.008 365.296C461.676 368.957 451.828 370.787 440.466 370.787C428.851 370.787 418.625 368.957 409.788 365.296C400.95 361.634 393.502 356.837 387.442 350.903L406.568 329.883C416.542 338.468 427.336 342.76 438.951 342.76C444.38 342.76 448.483 341.687 451.26 339.541C454.038 337.268 455.426 334.365 455.426 330.83C455.426 328.179 454.795 325.969 453.533 324.202C452.396 322.434 450.313 320.793 447.283 319.278C444.253 317.763 439.835 316.122 434.027 314.354C418.751 309.557 408.083 303.813 402.023 297.121C395.963 290.304 392.933 281.845 392.933 271.745C392.933 263.539 395.143 256.406 399.561 250.346C403.98 244.286 410.04 239.615 417.741 236.333C425.569 233.05 434.343 231.409 444.064 231.409ZM238.82 424.197C249.046 424.197 257.757 425.901 264.954 429.31C272.15 432.718 277.515 437.326 281.05 443.134C284.712 448.815 286.542 455.064 286.542 461.882C286.542 468.32 285.343 474.317 282.944 479.872C280.672 485.427 276.127 491.992 269.309 499.567C262.618 507.142 252.644 516.61 239.388 527.973H289.193L285.406 556H196.969V530.245C211.614 516.358 222.408 505.69 229.352 498.241C236.421 490.793 241.345 484.67 244.123 479.872C246.9 475.075 248.289 470.467 248.289 466.048C248.289 461.755 247.089 458.41 244.691 456.011C242.292 453.486 238.946 452.224 234.654 452.224C230.488 452.224 226.7 453.297 223.292 455.443C220.009 457.463 216.6 460.682 213.065 465.101L191.666 448.057C197.095 440.735 203.786 434.928 211.74 430.635C219.694 426.343 228.72 424.197 238.82 424.197ZM368.302 427.226V556H331.943V462.829L305.62 478.925L289.334 454.496L334.973 427.226H368.302ZM437.693 424.197C454.358 424.197 467.172 430.067 476.135 441.808C485.099 453.423 489.581 470.088 489.581 491.803C489.581 513.517 485.099 530.308 476.135 542.176C467.172 553.917 454.358 559.787 437.693 559.787C421.028 559.787 408.214 553.917 399.25 542.176C390.286 530.308 385.805 513.517 385.805 491.803C385.805 470.088 390.286 453.423 399.25 441.808C408.214 430.067 421.028 424.197 437.693 424.197ZM437.693 451.277C434.158 451.277 431.38 452.476 429.36 454.875C427.467 457.147 426.078 461.187 425.194 466.995C424.437 472.802 424.058 481.071 424.058 491.803C424.058 502.66 424.437 510.992 425.194 516.8C426.078 522.481 427.467 526.521 429.36 528.92C431.38 531.318 434.158 532.518 437.693 532.518C441.354 532.518 444.131 531.445 446.025 529.298C447.919 527.026 449.244 522.986 450.002 517.179C450.886 511.371 451.328 502.912 451.328 491.803C451.328 480.566 450.886 472.108 450.002 466.427C449.244 460.619 447.919 456.642 446.025 454.496C444.131 452.35 441.354 451.277 437.693 451.277ZM602.554 502.976V530.624H589.298V556H552.559L552.37 530.624H498.399V506.195L533.811 423.25L565.815 434.612L536.841 502.976H552.749L557.104 474.948H589.298V502.976H602.554Z" fill="white"/>
</g>
<defs>
<clipPath id="clip0_6871_12451">
<rect width="800" height="800" fill="white"/>
</clipPath>
</defs>
</svg>
