<svg width="78" height="78" viewBox="0 0 78 78" fill="none" xmlns="http://www.w3.org/2000/svg">
<path d="M66.4729 38.9524C66.4729 54.0499 54.1935 66.2896 39.0452 66.2896C23.897 66.2896 11.6176 54.0499 11.6176 38.9524C11.6176 23.8549 23.897 11.6152 39.0452 11.6152C54.1935 11.6152 66.4729 23.8549 66.4729 38.9524Z" stroke="white" stroke-width="0.25139"/>
<path d="M40.0858 25.9465C41.7447 25.9465 43.2377 26.1878 44.5649 26.6704C45.892 27.153 47.1438 27.892 48.3201 28.8873L45.2435 33.1402C43.7354 31.994 42.2122 31.421 40.6739 31.421C39.0753 31.421 37.8688 32.0091 37.0544 33.1855C36.2401 34.3618 35.8329 36.262 35.8329 38.8862C35.8329 41.4198 36.2401 43.2145 37.0544 44.2702C37.8688 45.3258 39.0452 45.8537 40.5835 45.8537C41.3978 45.8537 42.1368 45.733 42.8004 45.4917C43.464 45.2203 44.2633 44.798 45.1983 44.2249L48.3201 48.6588C45.9373 50.559 43.2377 51.5091 40.2215 51.5091C37.7783 51.5091 35.667 50.9964 33.8874 49.9708C32.1078 48.9152 30.7354 47.4523 29.7702 45.5822C28.805 43.682 28.3224 41.465 28.3224 38.9314C28.3224 36.3978 28.805 34.1507 29.7702 32.1901C30.7354 30.2295 32.1078 28.7063 33.8874 27.6205C35.667 26.5045 37.7331 25.9465 40.0858 25.9465Z" fill="white"/>
<path d="M44.5649 26.6704L44.534 26.7554L44.5649 26.6704ZM48.3201 28.8873L48.3934 28.9404L48.4426 28.8724L48.3786 28.8182L48.3201 28.8873ZM45.2435 33.1402L45.1888 33.2123L45.2626 33.2683L45.3169 33.1933L45.2435 33.1402ZM37.0545 44.2702L37.1261 44.2149L37.0545 44.2702ZM42.8004 45.4917L42.8313 45.5768L42.8347 45.5755L42.8004 45.4917ZM45.1983 44.2249L45.2723 44.1728L45.2234 44.1034L45.151 44.1478L45.1983 44.2249ZM48.3201 48.6588L48.3765 48.7295L48.4432 48.6764L48.3941 48.6067L48.3201 48.6588ZM33.8874 49.9708L33.8412 50.0487L33.8422 50.0492L33.8874 49.9708ZM29.7702 45.5822L29.6895 45.6232L29.6898 45.6237L29.7702 45.5822ZM29.7702 32.1901L29.8514 32.2301L29.7702 32.1901ZM33.8874 27.6205L33.9345 27.6977L33.9355 27.6972L33.8874 27.6205ZM40.0858 26.037C41.736 26.037 43.2183 26.277 44.534 26.7554L44.5958 26.5853C43.2572 26.0986 41.7534 25.856 40.0858 25.856V26.037ZM44.534 26.7554C45.8502 27.234 47.0927 27.9673 48.2617 28.9564L48.3786 28.8182C47.1948 27.8166 45.9339 27.0719 44.5958 26.5853L44.534 26.7554ZM48.2468 28.8343L45.1702 33.0872L45.3169 33.1933L48.3934 28.9404L48.2468 28.8343ZM45.2983 33.0682C43.7782 31.9129 42.2362 31.3305 40.6739 31.3305V31.5114C42.1882 31.5114 43.6927 32.0752 45.1888 33.2123L45.2983 33.0682ZM40.6739 31.3305C39.0497 31.3305 37.8135 31.93 36.9801 33.134L37.1288 33.237C37.9241 32.0882 39.101 31.5114 40.6739 31.5114V31.3305ZM36.9801 33.134C36.1496 34.3335 35.7424 36.2569 35.7424 38.8862H35.9234C35.9234 36.2672 36.3306 34.3901 37.1288 33.237L36.9801 33.134ZM35.7424 38.8862C35.7424 41.4243 36.1493 43.2449 36.9828 44.3254L37.1261 44.2149C36.3309 43.184 35.9234 41.4153 35.9234 38.8862H35.7424ZM36.9828 44.3254C37.8171 45.4069 39.022 45.9442 40.5835 45.9442V45.7632C39.0683 45.7632 37.9206 45.2448 37.1261 44.2149L36.9828 44.3254ZM40.5835 45.9442C41.4068 45.9442 42.1564 45.8222 42.8313 45.5768L42.7695 45.4067C42.1172 45.6439 41.3889 45.7632 40.5835 45.7632V45.9442ZM42.8347 45.5755C43.5044 45.3015 44.3083 44.8765 45.2456 44.3021L45.151 44.1478C44.2182 44.7195 43.4235 45.1391 42.7661 45.408L42.8347 45.5755ZM45.1243 44.277L48.2461 48.7109L48.3941 48.6067L45.2723 44.1728L45.1243 44.277ZM48.2637 48.588C45.8967 50.4756 43.217 51.4186 40.2215 51.4186V51.5996C43.2585 51.5996 45.9779 50.6424 48.3765 48.7295L48.2637 48.588ZM40.2215 51.4186C37.7912 51.4186 35.696 50.9087 33.9326 49.8924L33.8422 50.0492C35.6379 51.0841 37.7655 51.5996 40.2215 51.5996V51.4186ZM33.9336 49.893C32.1688 48.8462 30.8082 47.396 29.8506 45.5407L29.6898 45.6237C30.6627 47.5086 32.0468 48.9842 33.8412 50.0487L33.9336 49.893ZM29.8509 45.5412C28.8933 43.6559 28.4129 41.4535 28.4129 38.9314H28.2319C28.2319 41.4766 28.7168 43.7081 29.6895 45.6232L29.8509 45.5412ZM28.4129 38.9314C28.4129 36.4094 28.8932 34.1764 29.8514 32.2301L29.689 32.1501C28.7168 34.125 28.2319 36.3861 28.2319 38.9314H28.4129ZM29.8514 32.2301C30.8094 30.2841 32.1703 28.7742 33.9345 27.6977L33.8403 27.5433C32.0453 28.6385 30.6614 30.175 29.689 32.1501L29.8514 32.2301ZM33.9355 27.6972C35.699 26.5912 37.748 26.037 40.0858 26.037V25.856C37.7182 25.856 35.635 26.4177 33.8393 27.5438L33.9355 27.6972Z" fill="white"/>
<mask id="path-4-inside-1_4_192" fill="white">
<path d="M58.5226 19.4992C61.0804 22.057 63.1094 25.0936 64.4937 28.4355C65.8779 31.7774 66.5904 35.3593 66.5904 38.9766C66.5904 42.5938 65.8779 46.1757 64.4937 49.5176C63.1094 52.8595 61.0804 55.8961 58.5226 58.4539L54.6272 54.5584C56.6734 52.5122 58.2966 50.0829 59.404 47.4094C60.5114 44.7359 61.0814 41.8704 61.0814 38.9766C61.0814 36.0827 60.5114 33.2173 59.404 30.5437C58.2966 27.8702 56.6734 25.4409 54.6272 23.3947L58.5226 19.4992Z"/>
</mask>
<path d="M58.5226 19.4992C61.0804 22.057 63.1094 25.0936 64.4937 28.4355C65.8779 31.7774 66.5904 35.3593 66.5904 38.9766C66.5904 42.5938 65.8779 46.1757 64.4937 49.5176C63.1094 52.8595 61.0804 55.8961 58.5226 58.4539L54.6272 54.5584C56.6734 52.5122 58.2966 50.0829 59.404 47.4094C60.5114 44.7359 61.0814 41.8704 61.0814 38.9766C61.0814 36.0827 60.5114 33.2173 59.404 30.5437C58.2966 27.8702 56.6734 25.4409 54.6272 23.3947L58.5226 19.4992Z" fill="#3DD7AC" stroke="white" stroke-width="0.180974" mask="url(#path-4-inside-1_4_192)"/>
<mask id="path-5-inside-2_4_192" fill="white">
<path d="M19.4773 58.4319C16.9195 55.8741 14.8905 52.8376 13.5063 49.4956C12.122 46.1537 11.4095 42.5719 11.4095 38.9546C11.4095 35.3373 12.122 31.7555 13.5063 28.4135C14.8905 25.0716 16.9195 22.0351 19.4773 19.4773L23.3728 23.3727C21.3265 25.419 19.7034 27.8482 18.5959 30.5218C17.4885 33.1953 16.9185 36.0608 16.9185 38.9546C16.9185 41.8484 17.4885 44.7139 18.5959 47.3874C19.7034 50.061 21.3265 52.4902 23.3728 54.5364L19.4773 58.4319Z"/>
</mask>
<path d="M19.4773 58.4319C16.9195 55.8741 14.8905 52.8376 13.5063 49.4956C12.122 46.1537 11.4095 42.5719 11.4095 38.9546C11.4095 35.3373 12.122 31.7555 13.5063 28.4135C14.8905 25.0716 16.9195 22.0351 19.4773 19.4773L23.3728 23.3727C21.3265 25.419 19.7034 27.8482 18.5959 30.5218C17.4885 33.1953 16.9185 36.0608 16.9185 38.9546C16.9185 41.8484 17.4885 44.7139 18.5959 47.3874C19.7034 50.061 21.3265 52.4902 23.3728 54.5364L19.4773 58.4319Z" fill="#3DD7AC" stroke="white" stroke-width="0.180974" mask="url(#path-5-inside-2_4_192)"/>
</svg>
