<svg width="800" height="800" viewBox="0 0 800 800" fill="none" xmlns="http://www.w3.org/2000/svg">
<g clip-path="url(#clip0_6871_12459)">
<ellipse cx="399.763" cy="400.025" rx="384.427" ry="383.164" fill="#3DD7AC"/>
<path d="M671.514 128.612C707.201 164.299 735.509 206.665 754.822 253.292C774.136 299.918 784.076 349.893 784.076 400.361C784.076 450.83 774.136 500.804 754.822 547.431C735.509 594.057 707.201 636.424 671.514 672.11L617.164 617.76C645.713 589.211 668.36 555.318 683.811 518.017C699.261 480.715 707.214 440.736 707.214 400.361C707.214 359.986 699.261 320.007 683.811 282.705C668.36 245.404 645.713 211.511 617.164 182.962L671.514 128.612Z" fill="#FFDA1A"/>
<path d="M126.749 671.807C91.0622 636.12 62.754 593.754 43.4406 547.127C24.1271 500.5 14.1866 450.526 14.1866 400.058C14.1866 349.589 24.1271 299.615 43.4406 252.988C62.754 206.361 91.0622 163.995 126.749 128.308L181.099 182.658C152.549 211.208 129.903 245.101 114.452 282.402C99.0013 319.703 91.0488 359.683 91.0489 400.058C91.0489 440.432 99.0013 480.412 114.452 517.713C129.903 555.015 152.549 588.908 181.099 617.457L126.749 671.807Z" fill="#FFDA1A"/>
<path d="M309.615 322.308C309.615 331.524 307.595 339.793 303.555 347.116C299.515 354.438 293.392 360.246 285.185 364.538C276.979 368.704 266.879 370.787 254.886 370.787C236.832 370.787 223.197 366.432 213.981 357.721C204.765 349.01 200.157 337.205 200.157 322.308V235.197H239.168V321.172C239.168 328.62 240.367 334.112 242.766 337.647C245.291 341.056 249.331 342.76 254.886 342.76C260.441 342.76 264.418 341.056 266.816 337.647C269.341 334.112 270.604 328.62 270.604 321.172V235.197H309.615V322.308ZM393.846 295.985L430.584 367H388.543L370.363 321.74L353.32 367H312.036L347.26 297.121L314.498 235.197H356.35L370.742 273.071L386.839 235.197H427.933L393.846 295.985ZM542.632 322.308C542.632 331.524 540.612 339.793 536.572 347.116C532.532 354.438 526.409 360.246 518.203 364.538C509.997 368.704 499.897 370.787 487.903 370.787C469.85 370.787 456.215 366.432 446.999 357.721C437.782 349.01 433.174 337.205 433.174 322.308V235.197H472.185V321.172C472.185 328.62 473.385 334.112 475.783 337.647C478.308 341.056 482.348 342.76 487.903 342.76C493.458 342.76 497.435 341.056 499.834 337.647C502.359 334.112 503.621 328.62 503.621 321.172V235.197H542.632V322.308ZM595.951 235.197V367H556.94V235.197H595.951ZM232.636 424.197C242.862 424.197 251.573 425.901 258.769 429.31C265.966 432.718 271.331 437.326 274.866 443.134C278.527 448.815 280.358 455.064 280.358 461.882C280.358 468.32 279.159 474.317 276.76 479.872C274.487 485.427 269.942 491.992 263.125 499.567C256.434 507.142 246.46 516.61 233.204 527.973H283.009L279.222 556H190.785V530.245C205.429 516.358 216.224 505.69 223.167 498.241C230.237 490.793 235.161 484.67 237.938 479.872C240.716 475.075 242.105 470.467 242.105 466.048C242.105 461.755 240.905 458.41 238.507 456.011C236.108 453.486 232.762 452.224 228.47 452.224C224.304 452.224 220.516 453.297 217.107 455.443C213.825 457.463 210.416 460.682 206.881 465.101L185.482 448.057C190.911 440.735 197.602 434.928 205.556 430.635C213.509 426.343 222.536 424.197 232.636 424.197ZM340.63 424.197C350.856 424.197 359.568 425.901 366.764 429.31C373.96 432.718 379.325 437.326 382.86 443.134C386.522 448.815 388.352 455.064 388.352 461.882C388.352 468.32 387.153 474.317 384.754 479.872C382.482 485.427 377.937 491.992 371.119 499.567C364.428 507.142 354.454 516.61 341.198 527.973H391.003L387.216 556H298.779V530.245C313.424 516.358 324.218 505.69 331.162 498.241C338.232 490.793 343.155 484.67 345.933 479.872C348.71 475.075 350.099 470.467 350.099 466.048C350.099 461.755 348.9 458.41 346.501 456.011C344.102 453.486 340.757 452.224 336.464 452.224C332.298 452.224 328.51 453.297 325.102 455.443C321.819 457.463 318.411 460.682 314.876 465.101L293.476 448.057C298.905 440.735 305.596 434.928 313.55 430.635C321.504 426.343 330.53 424.197 340.63 424.197ZM459.419 424.197C476.084 424.197 488.898 430.067 497.861 441.808C506.825 453.423 511.307 470.088 511.307 491.803C511.307 513.517 506.825 530.308 497.861 542.176C488.898 553.917 476.084 559.787 459.419 559.787C442.754 559.787 429.94 553.917 420.976 542.176C412.012 530.308 407.531 513.517 407.531 491.803C407.531 470.088 412.012 453.423 420.976 441.808C429.94 430.067 442.754 424.197 459.419 424.197ZM459.419 451.277C455.884 451.277 453.106 452.476 451.086 454.875C449.193 457.147 447.804 461.187 446.92 466.995C446.163 472.802 445.784 481.071 445.784 491.803C445.784 502.66 446.163 510.992 446.92 516.8C447.804 522.481 449.193 526.521 451.086 528.92C453.106 531.318 455.884 532.518 459.419 532.518C463.08 532.518 465.857 531.445 467.751 529.298C469.645 527.026 470.971 522.986 471.728 517.179C472.612 511.371 473.054 502.912 473.054 491.803C473.054 480.566 472.612 472.108 471.728 466.427C470.971 460.619 469.645 456.642 467.751 454.496C465.857 452.35 463.08 451.277 459.419 451.277ZM599.182 427.226V556H562.822V462.829L536.5 478.925L520.213 454.496L565.852 427.226H599.182Z" fill="white"/>
</g>
<defs>
<clipPath id="clip0_6871_12459">
<rect width="800" height="800" fill="white"/>
</clipPath>
</defs>
</svg>
