<svg width="800" height="800" viewBox="0 0 800 800" fill="none" xmlns="http://www.w3.org/2000/svg">
<g clip-path="url(#clip0_6871_12450)">
<ellipse cx="399.763" cy="400.025" rx="384.427" ry="383.164" fill="#3DD7AC"/>
<path d="M671.514 128.612C707.201 164.299 735.509 206.665 754.822 253.292C774.136 299.918 784.076 349.893 784.076 400.361C784.076 450.83 774.136 500.804 754.822 547.431C735.509 594.057 707.201 636.424 671.514 672.11L617.164 617.76C645.713 589.211 668.36 555.318 683.811 518.017C699.261 480.715 707.214 440.736 707.214 400.361C707.214 359.986 699.261 320.007 683.811 282.705C668.36 245.404 645.713 211.511 617.164 182.962L671.514 128.612Z" fill="#5D3EDE"/>
<path d="M126.749 671.807C91.0622 636.12 62.754 593.754 43.4406 547.127C24.1271 500.5 14.1866 450.526 14.1866 400.058C14.1866 349.589 24.1271 299.615 43.4406 252.988C62.754 206.361 91.0622 163.995 126.749 128.308L181.099 182.658C152.549 211.208 129.903 245.101 114.452 282.402C99.0013 319.703 91.0488 359.683 91.0489 400.058C91.0489 440.432 99.0013 480.412 114.452 517.713C129.903 555.015 152.549 588.908 181.099 617.457L126.749 671.807Z" fill="#5D3EDE"/>
<path d="M311.494 366.758V234.955H395.196L391.22 262.035H350.504V290.82H386.296V317.9H350.504V366.758H311.494ZM489.949 234.955L485.973 262.035H442.417V286.654H480.67V312.977H442.417V339.489H489.002V366.758H403.406V234.955H489.949ZM243.498 423.955C253.724 423.955 262.435 425.659 269.631 429.068C276.827 432.477 282.193 437.085 285.728 442.892C289.389 448.573 291.22 454.823 291.22 461.64C291.22 468.079 290.02 474.076 287.621 479.631C285.349 485.185 280.804 491.75 273.987 499.325C267.295 506.9 257.322 516.369 244.066 527.731H293.871L290.083 555.758H201.646V530.004C216.291 516.116 227.085 505.448 234.029 498C241.099 490.551 246.023 484.428 248.8 479.631C251.578 474.833 252.966 470.225 252.966 465.806C252.966 461.514 251.767 458.168 249.368 455.77C246.969 453.245 243.624 451.982 239.331 451.982C235.165 451.982 231.378 453.055 227.969 455.201C224.687 457.221 221.278 460.441 217.743 464.859L196.344 447.816C201.772 440.493 208.464 434.686 216.417 430.394C224.371 426.101 233.398 423.955 243.498 423.955ZM343.917 423.955C354.143 423.955 362.854 425.659 370.05 429.068C377.247 432.477 382.612 437.085 386.147 442.892C389.808 448.573 391.639 454.823 391.639 461.64C391.639 468.079 390.44 474.076 388.041 479.631C385.768 485.185 381.223 491.75 374.406 499.325C367.715 506.9 357.741 516.369 344.485 527.731H394.29L390.503 555.758H302.066V530.004C316.71 516.116 327.505 505.448 334.448 498C341.518 490.551 346.442 484.428 349.219 479.631C351.997 474.833 353.386 470.225 353.386 465.806C353.386 461.514 352.186 458.168 349.788 455.77C347.389 453.245 344.043 451.982 339.751 451.982C335.585 451.982 331.797 453.055 328.388 455.201C325.106 457.221 321.697 460.441 318.162 464.859L296.763 447.816C302.192 440.493 308.883 434.686 316.837 430.394C324.79 426.101 333.817 423.955 343.917 423.955ZM455.131 423.955C471.795 423.955 484.61 429.825 493.573 441.567C502.537 453.181 507.019 469.846 507.019 491.561C507.019 513.276 502.537 530.067 493.573 541.934C484.61 553.675 471.795 559.546 455.131 559.546C438.466 559.546 425.652 553.675 416.688 541.934C407.724 530.067 403.242 513.276 403.242 491.561C403.242 469.846 407.724 453.181 416.688 441.567C425.652 429.825 438.466 423.955 455.131 423.955ZM455.131 451.035C451.596 451.035 448.818 452.235 446.798 454.633C444.904 456.906 443.516 460.946 442.632 466.753C441.875 472.561 441.496 480.83 441.496 491.561C441.496 502.418 441.875 510.751 442.632 516.558C443.516 522.239 444.904 526.279 446.798 528.678C448.818 531.077 451.596 532.276 455.131 532.276C458.792 532.276 461.569 531.203 463.463 529.057C465.357 526.784 466.682 522.744 467.44 516.937C468.324 511.13 468.765 502.671 468.765 491.561C468.765 480.325 468.324 471.866 467.44 466.185C466.682 460.378 465.357 456.401 463.463 454.255C461.569 452.108 458.792 451.035 455.131 451.035ZM587.319 426.985V555.758H550.959V462.587L524.636 478.684L508.35 454.255L553.989 426.985H587.319Z" fill="white"/>
</g>
<defs>
<clipPath id="clip0_6871_12450">
<rect width="800" height="800" fill="white"/>
</clipPath>
</defs>
</svg>
